<svg width="103" height="103" viewBox="0 0 103 103" fill="none" xmlns="http://www.w3.org/2000/svg">
<path fill-rule="evenodd" clip-rule="evenodd" d="M45.8584 0.286363C42.7959 0.613622 37.8166 1.77072 34.5489 2.91532C17.2677 8.96801 4.76032 23.2638 0.774555 41.5186C-0.262681 46.2695 -0.257025 56.8321 0.784653 61.6701C5.24299 82.3684 20.6177 97.7125 41.4154 102.22C46.1762 103.252 56.8063 103.262 61.5171 102.239C66.5401 101.148 71.2565 99.4403 75.8195 97.0596C80.405 94.6672 81.3982 93.5504 81.4007 90.7828C81.4027 88.5303 79.5152 86.3439 77.2594 85.986C75.9649 85.7809 75.1425 86.0549 71.6556 87.8548C62.4348 92.6142 53.7386 94.1119 44.5986 92.5147C21.8909 88.5464 6.70635 67.2214 10.5612 44.713C14.6435 20.8767 38.2588 5.5209 61.7065 11.4559C80.8857 16.3104 94.083 34.0912 93.0086 53.6288C92.7703 57.9582 93.1588 59.3994 94.9401 60.7975C96.2883 61.8559 99.3511 61.9852 100.702 61.0409C102.698 59.6461 103.012 58.3269 103 51.3928C102.983 42.1711 101.432 35.7783 97.2407 27.6484C87.6968 9.13607 66.8672 -1.95569 45.8584 0.286363ZM69.2741 33.3109C68.7248 33.6737 62.7781 39.4297 56.0591 46.1027L43.8425 58.2355L39.0949 53.5482C36.4837 50.9701 33.9499 48.6595 33.4649 48.414C31.0903 47.2114 27.6756 48.5325 26.6158 51.064C25.4045 53.9565 25.8633 54.7154 33.4733 62.3987C37.2862 66.2485 40.8964 69.6545 41.4962 69.9676C42.8917 70.6959 44.792 70.6939 46.1815 69.9628C46.7813 69.6468 53.8461 62.8006 61.8814 54.7485C77.8309 38.7647 77.7291 38.8977 76.4104 35.7489C75.2863 33.0643 71.5708 31.7952 69.2741 33.3109Z" fill="url(#paint0_linear_394_24)"/>
<defs>
<linearGradient id="paint0_linear_394_24" x1="51.5" y1="0" x2="51.5" y2="103" gradientUnits="userSpaceOnUse">
<stop stop-color="#ADD8A7"/>
<stop offset="1" stop-color="#84C57A"/>
</linearGradient>
</defs>
</svg>
