<svg width="16" height="18" viewBox="0 0 16 18" xmlns="http://www.w3.org/2000/svg">
<path d="M13.7428 2.22393C11.7189 0.200098 8.42323 0.200098 6.40155 2.22393L0.794138 7.82705C0.757614 7.86357 0.738278 7.91299 0.738278 7.96455C0.738278 8.01611 0.757614 8.06553 0.794138 8.10205L1.58691 8.89482C1.62315 8.9309 1.6722 8.95116 1.72334 8.95116C1.77447 8.95116 1.82352 8.9309 1.85976 8.89482L7.46718 3.2917C8.16327 2.59561 9.08925 2.21318 10.0732 2.21318C11.0572 2.21318 11.9832 2.59561 12.6771 3.2917C13.3732 3.98779 13.7556 4.91377 13.7556 5.89561C13.7556 6.87959 13.3732 7.80342 12.6771 8.49951L6.9623 14.2122L6.03632 15.1382C5.1705 16.004 3.76328 16.004 2.89746 15.1382C2.47851 14.7192 2.24863 14.1628 2.24863 13.5698C2.24863 12.9769 2.47851 12.4204 2.89746 12.0015L8.56718 6.33389C8.71112 6.19209 8.90018 6.1126 9.10214 6.1126H9.10429C9.30624 6.1126 9.49315 6.19209 9.63495 6.33389C9.77889 6.47783 9.85624 6.66689 9.85624 6.86885C9.85624 7.06865 9.77674 7.25771 9.63495 7.39951L5.00077 12.0294C4.96425 12.0659 4.94491 12.1153 4.94491 12.1669C4.94491 12.2185 4.96425 12.2679 5.00077 12.3044L5.79355 13.0972C5.82978 13.1332 5.87884 13.1535 5.92997 13.1535C5.98111 13.1535 6.03016 13.1332 6.0664 13.0972L10.6984 8.46514C11.126 8.0376 11.3601 7.47041 11.3601 6.8667C11.3601 6.26299 11.1238 5.69365 10.6984 5.26826C9.81542 4.38525 8.38026 4.3874 7.49726 5.26826L6.94726 5.82041L1.82968 10.9358C1.48235 11.2811 1.20702 11.692 1.01967 12.1445C0.83232 12.597 0.736674 13.0822 0.738278 13.572C0.738278 14.5667 1.12715 15.5013 1.82968 16.2038C2.558 16.93 3.51191 17.2931 4.46581 17.2931C5.41972 17.2931 6.37362 16.93 7.09979 16.2038L13.7428 9.56514C14.7203 8.58545 15.2617 7.28135 15.2617 5.89561C15.2638 4.50771 14.7224 3.20361 13.7428 2.22393Z" fill="currentColor"/>
</svg>
