<svg width="26" height="20" viewBox="0 0 26 20" fill="none" xmlns="http://www.w3.org/2000/svg">
<path fill-rule="evenodd" clip-rule="evenodd" d="M0.947581 0.122528C0.273951 0.424761 -0.114384 1.22501 0.0299944 2.01368C0.119289 2.50157 0.627668 3.07818 1.08941 3.2152C1.34457 3.29097 5.16775 3.31602 13.2398 3.29473C24.9532 3.26405 25.0194 3.26269 25.299 3.04864C25.8333 2.63975 26 2.30621 26 1.64622C26 0.986231 25.8333 0.652689 25.299 0.243797C25.0192 0.029645 24.9605 0.0284971 13.138 0.00595483C3.41698 -0.0126217 1.20172 0.00856395 0.947581 0.122528ZM0.947581 8.47152C0.273951 8.77376 -0.114384 9.57401 0.0299944 10.3627C0.119289 10.8506 0.627668 11.4272 1.08941 11.5642C1.34457 11.64 5.16775 11.665 13.2398 11.6437C24.9532 11.613 25.0194 11.6117 25.299 11.3976C25.8333 10.9887 26 10.6552 26 9.99521C26 9.33522 25.8333 9.00168 25.299 8.59279C25.0192 8.37864 24.9605 8.37749 13.138 8.35495C3.41698 8.33637 1.20172 8.35756 0.947581 8.47152ZM0.947581 16.8205C0.273951 17.1227 -0.114384 17.923 0.0299944 18.7117C0.119289 19.1996 0.627668 19.7762 1.08941 19.9132C1.34457 19.989 5.16775 20.014 13.2398 19.9927C24.9532 19.962 25.0194 19.9607 25.299 19.7466C25.8333 19.3377 26 19.0042 26 18.3442C26 17.6842 25.8333 17.3507 25.299 16.9418C25.0192 16.7276 24.9605 16.7265 13.138 16.7039C3.41698 16.6854 1.20172 16.7066 0.947581 16.8205Z" fill="url(#paint0_linear_308_266)"/>
<defs>
<linearGradient id="paint0_linear_308_266" x1="13" y1="0" x2="13" y2="20" gradientUnits="userSpaceOnUse">
<stop stop-color="#ADD8A7"/>
<stop offset="1" stop-color="#84C57A"/>
</linearGradient>
</defs>
</svg>
