<svg width="29" height="29" viewBox="0 0 29 29" fill="none" xmlns="http://www.w3.org/2000/svg">
<path fill-rule="evenodd" clip-rule="evenodd" d="M9.02022 1.28776C10.4376 1.22251 10.8895 1.20801 14.5 1.20801C18.1105 1.20801 18.5624 1.22372 19.9786 1.28776C21.3948 1.3518 22.3614 1.57776 23.2073 1.90522C24.093 2.23992 24.8965 2.76313 25.5611 3.4398C26.2378 4.10317 26.7598 4.90551 27.0933 5.79242C27.4219 6.63826 27.6467 7.60492 27.7119 9.01867C27.7772 10.4385 27.7917 10.8904 27.7917 14.4997C27.7917 18.1102 27.776 18.5621 27.7119 19.9795C27.6479 21.3932 27.4219 22.3599 27.0933 23.2057C26.7598 24.0927 26.2369 24.8964 25.5611 25.5608C24.8965 26.2374 24.093 26.7594 23.2073 27.0929C22.3614 27.4216 21.3948 27.6463 19.981 27.7116C18.5624 27.7768 18.1105 27.7913 14.5 27.7913C10.8895 27.7913 10.4376 27.7756 9.02022 27.7116C7.60647 27.6475 6.6398 27.4216 5.79397 27.0929C4.90696 26.7594 4.10329 26.2365 3.43893 25.5608C2.76272 24.897 2.23943 24.0937 1.90555 23.2069C1.57809 22.3611 1.35334 21.3944 1.28809 19.9807C1.22284 18.5609 1.20834 18.109 1.20834 14.4997C1.20834 10.8892 1.22405 10.4373 1.28809 9.02109C1.35214 7.60492 1.57809 6.63826 1.90555 5.79242C2.23993 4.90561 2.76361 4.10234 3.44014 3.43859C4.10356 2.76253 4.90641 2.23925 5.79276 1.90522C6.63859 1.57776 7.60526 1.35301 9.01901 1.28776H9.02022ZM19.871 3.68026C18.4694 3.61622 18.0489 3.60292 14.5 3.60292C10.9511 3.60292 10.5306 3.61622 9.12897 3.68026C7.83243 3.73947 7.12918 3.95576 6.66034 4.13822C6.04047 4.37988 5.59701 4.66626 5.1318 5.13147C4.69081 5.56049 4.35144 6.08277 4.13855 6.66001C3.95609 7.12884 3.7398 7.83209 3.68059 9.12863C3.61655 10.5303 3.60326 10.9508 3.60326 14.4997C3.60326 18.0485 3.61655 18.469 3.68059 19.8707C3.7398 21.1673 3.95609 21.8705 4.13855 22.3393C4.35122 22.9157 4.69076 23.4389 5.1318 23.8679C5.56076 24.3089 6.08397 24.6485 6.66034 24.8611C7.12918 25.0436 7.83243 25.2599 9.12897 25.3191C10.5306 25.3831 10.9499 25.3964 14.5 25.3964C18.0501 25.3964 18.4694 25.3831 19.871 25.3191C21.1676 25.2599 21.8708 25.0436 22.3397 24.8611C22.9596 24.6195 23.403 24.3331 23.8682 23.8679C24.3093 23.4389 24.6488 22.9157 24.8615 22.3393C25.0439 21.8705 25.2602 21.1673 25.3194 19.8707C25.3835 18.469 25.3968 18.0485 25.3968 14.4997C25.3968 10.9508 25.3835 10.5303 25.3194 9.12863C25.2602 7.83209 25.0439 7.12884 24.8615 6.66001C24.6198 6.04013 24.3334 5.59667 23.8682 5.13147C23.4392 4.69051 22.9169 4.35114 22.3397 4.13822C21.8708 3.95576 21.1676 3.73947 19.871 3.68026ZM12.8023 18.5971C13.7504 18.9918 14.8062 19.0451 15.7892 18.7478C16.7723 18.4506 17.6216 17.8213 18.1922 16.9674C18.7628 16.1135 19.0192 15.088 18.9177 14.066C18.8162 13.044 18.3631 12.089 17.6356 11.364C17.1719 10.9006 16.6112 10.5458 15.9939 10.3251C15.3766 10.1043 14.718 10.0232 14.0656 10.0876C13.4132 10.1519 12.7832 10.3601 12.2209 10.6972C11.6586 11.0343 11.178 11.4918 10.8138 12.0369C10.4495 12.582 10.2107 13.2011 10.1144 13.8495C10.0181 14.498 10.0668 15.1598 10.257 15.7872C10.4472 16.4146 10.7741 16.992 11.2142 17.4779C11.6543 17.9638 12.1967 18.346 12.8023 18.5971ZM9.66909 9.66876C10.3035 9.03435 11.0566 8.53112 11.8855 8.18778C12.7144 7.84444 13.6028 7.66773 14.5 7.66773C15.3972 7.66773 16.2856 7.84444 17.1145 8.18778C17.9434 8.53111 18.6965 9.03435 19.3309 9.66876C19.9653 10.3032 20.4686 11.0563 20.8119 11.8852C21.1552 12.7141 21.332 13.6025 21.332 14.4997C21.332 15.3969 21.1552 16.2853 20.8119 17.1141C20.4686 17.943 19.9653 18.6962 19.3309 19.3306C18.0497 20.6118 16.312 21.3316 14.5 21.3316C12.6881 21.3316 10.9503 20.6118 9.66909 19.3306C8.38785 18.0494 7.66806 16.3116 7.66806 14.4997C7.66806 12.6877 8.38785 10.95 9.66909 9.66876ZM22.8472 8.68517C23.0044 8.53687 23.1302 8.35854 23.2173 8.16073C23.3043 7.96291 23.3508 7.74964 23.354 7.53355C23.3571 7.31745 23.3169 7.10292 23.2356 6.90265C23.1544 6.70239 23.0338 6.52046 22.881 6.36764C22.7281 6.21482 22.5462 6.09421 22.3459 6.01297C22.1457 5.93172 21.9311 5.89148 21.7151 5.89463C21.499 5.89778 21.2857 5.94426 21.0879 6.03131C20.8901 6.11836 20.7117 6.24421 20.5634 6.40142C20.275 6.70717 20.1171 7.11328 20.1232 7.53355C20.1294 7.95382 20.299 8.35515 20.5962 8.65236C20.8934 8.94957 21.2948 9.11924 21.7151 9.12537C22.1353 9.1315 22.5414 8.97359 22.8472 8.68517Z" fill="white"/>
</svg>
