<svg width="19" height="19" viewBox="0 0 19 19" fill="none" xmlns="http://www.w3.org/2000/svg">
<path d="M9.55257 6.56776C7.90915 6.56776 6.56799 7.90891 6.56799 9.55233C6.56799 11.1958 7.90915 12.5369 9.55257 12.5369C11.196 12.5369 12.5371 11.1958 12.5371 9.55233C12.5371 7.90891 11.196 6.56776 9.55257 6.56776ZM18.5041 9.55233C18.5041 8.31641 18.5153 7.09168 18.4458 5.858C18.3764 4.42504 18.0495 3.15329 17.0017 2.10545C15.9516 1.05536 14.6821 0.730705 13.2491 0.661297C12.0132 0.591888 10.7885 0.603083 9.5548 0.603083C8.31888 0.603083 7.09415 0.591888 5.86047 0.661297C4.42751 0.730705 3.15577 1.0576 2.10792 2.10545C1.05783 3.15553 0.733177 4.42504 0.663769 5.858C0.59436 7.09392 0.605555 8.31865 0.605555 9.55233C0.605555 10.786 0.59436 12.013 0.663769 13.2467C0.733177 14.6796 1.06007 15.9514 2.10792 16.9992C3.15801 18.0493 4.42751 18.374 5.86047 18.4434C7.09639 18.5128 8.32112 18.5016 9.5548 18.5016C10.7907 18.5016 12.0155 18.5128 13.2491 18.4434C14.6821 18.374 15.9538 18.0471 17.0017 16.9992C18.0518 15.9491 18.3764 14.6796 18.4458 13.2467C18.5175 12.013 18.5041 10.7883 18.5041 9.55233ZM9.55257 14.1445C7.01131 14.1445 4.96039 12.0936 4.96039 9.55233C4.96039 7.01108 7.01131 4.96016 9.55257 4.96016C12.0938 4.96016 14.1447 7.01108 14.1447 9.55233C14.1447 12.0936 12.0938 14.1445 9.55257 14.1445ZM14.3328 5.84456C13.7395 5.84456 13.2603 5.36542 13.2603 4.77209C13.2603 4.17875 13.7395 3.69961 14.3328 3.69961C14.9261 3.69961 15.4053 4.17875 15.4053 4.77209C15.4055 4.91297 15.3778 5.05252 15.324 5.18271C15.2702 5.31291 15.1912 5.43121 15.0916 5.53084C14.9919 5.63046 14.8736 5.70945 14.7434 5.76329C14.6132 5.81712 14.4737 5.84474 14.3328 5.84456Z" fill="white"/>
</svg>
