<svg width="21" height="15" viewBox="0 0 21 15" fill="none" xmlns="http://www.w3.org/2000/svg">
<path d="M0.810126 2.07851L9.43513 6.71186C9.72493 6.86711 10.0998 6.94071 10.477 6.94071C10.8542 6.94071 11.2291 6.86711 11.5189 6.71186L20.1439 2.07851C20.7063 1.77606 21.2376 0.599609 20.206 0.599609H0.749176C-0.282374 0.599609 0.248926 1.77606 0.810126 2.07851ZM20.405 4.61196L11.5189 9.24301C11.1279 9.44771 10.8542 9.47186 10.477 9.47186C10.0998 9.47186 9.82613 9.44771 9.43513 9.24301C9.04413 9.03831 1.23218 4.94316 0.593926 4.61081C0.145426 4.37621 0.150026 4.65106 0.150026 4.86266V13.2496C0.150026 13.7326 0.800926 14.3996 1.30003 14.3996H19.7C20.1991 14.3996 20.85 13.7326 20.85 13.2496V4.86381C20.85 4.65221 20.8546 4.37736 20.405 4.61196Z" fill="white"/>
</svg>
