<svg width="17" height="23" viewBox="0 0 17 23" fill="none" xmlns="http://www.w3.org/2000/svg">
<path d="M8.5 22.6667C8.5 22.6667 17 14.6115 17 8.5C17 6.24566 16.1045 4.08365 14.5104 2.48959C12.9163 0.895533 10.7543 0 8.5 0C6.24566 0 4.08365 0.895533 2.48959 2.48959C0.895533 4.08365 3.35923e-08 6.24566 0 8.5C0 14.6115 8.5 22.6667 8.5 22.6667ZM8.5 12.75C7.37283 12.75 6.29183 12.3022 5.4948 11.5052C4.69777 10.7082 4.25 9.62717 4.25 8.5C4.25 7.37283 4.69777 6.29183 5.4948 5.4948C6.29183 4.69777 7.37283 4.25 8.5 4.25C9.62717 4.25 10.7082 4.69777 11.5052 5.4948C12.3022 6.29183 12.75 7.37283 12.75 8.5C12.75 9.62717 12.3022 10.7082 11.5052 11.5052C10.7082 12.3022 9.62717 12.75 8.5 12.75Z" fill="white"/>
</svg>
