<svg width="9" height="6" viewBox="0 0 9 6" xmlns="http://www.w3.org/2000/svg">
<path fill-rule="evenodd" clip-rule="evenodd" d="M8.94863 1.03522C8.81277 0.748214 8.27693 0.614296 8.01316 0.801459C7.95274 0.844315 7.17444 1.61572 6.28353 2.5157C5.39269 3.41568 4.63018 4.1836 4.58916 4.22225C4.52797 4.27976 4.21836 3.9928 2.87966 2.63788C1.98053 1.72782 1.16632 0.919014 1.07022 0.840419C0.78104 0.603854 0.258652 0.66967 0.0822002 0.964831C-0.0492077 1.18467 -0.0229022 1.39625 0.159976 1.58965C0.983857 2.46115 4.15909 5.62751 4.2341 5.65239C4.41085 5.71109 4.71276 5.68548 4.85414 5.59988C5.02909 5.49385 8.90755 1.58492 8.964 1.4577C9.01715 1.33781 9.01097 1.16701 8.94863 1.03522Z" fill="currentColor"/>
</svg>
