<svg width="22" height="22" viewBox="0 0 22 22" fill="none" xmlns="http://www.w3.org/2000/svg">
<path d="M21.0134 9.50681L2.95339 0.476808C2.70975 0.363928 2.44175 0.313778 2.17378 0.330922C1.90581 0.348067 1.64638 0.431962 1.41912 0.57497C1.19185 0.717979 1.00396 0.915559 0.872549 1.14972C0.74114 1.38389 0.670385 1.6472 0.666726 1.9157V19.9679C0.664451 20.2435 0.733312 20.5151 0.866653 20.7563C0.999994 20.9975 1.19331 21.2002 1.42791 21.3449C1.6625 21.4896 1.93046 21.5713 2.20586 21.5821C2.48127 21.593 2.75481 21.5326 3.00006 21.4068L21.0134 12.3768C21.2802 12.2429 21.5046 12.0374 21.6613 11.7833C21.8181 11.5292 21.9011 11.2365 21.9011 10.9379C21.9011 10.6394 21.8181 10.3467 21.6613 10.0926C21.5046 9.83848 21.2802 9.63297 21.0134 9.49903V9.50681Z" fill="white"/>
</svg>
