<svg width="32" height="32" viewBox="0 0 32 32" fill="none" xmlns="http://www.w3.org/2000/svg">
<path d="M12 16C12 16.7911 12.2346 17.5645 12.6741 18.2223C13.1136 18.8801 13.7384 19.3928 14.4693 19.6955C15.2002 19.9983 16.0044 20.0775 16.7804 19.9231C17.5563 19.7688 18.269 19.3878 18.8284 18.8284C19.3878 18.269 19.7688 17.5563 19.9231 16.7804C20.0775 16.0044 19.9983 15.2002 19.6955 14.4693C19.3928 13.7384 18.8801 13.1136 18.2223 12.6741C17.5645 12.2346 16.7911 12 16 12C14.9391 12 13.9217 12.4214 13.1716 13.1716C12.4214 13.9217 12 14.9391 12 16ZM18 16C18 16.3956 17.8827 16.7822 17.6629 17.1111C17.4432 17.44 17.1308 17.6964 16.7654 17.8478C16.3999 17.9991 15.9978 18.0387 15.6098 17.9616C15.2219 17.8844 14.8655 17.6939 14.5858 17.4142C14.3061 17.1345 14.1156 16.7781 14.0384 16.3902C13.9613 16.0022 14.0009 15.6001 14.1522 15.2346C14.3036 14.8692 14.56 14.5568 14.8889 14.3371C15.2178 14.1173 15.6044 14 16 14C16.5304 14 17.0391 14.2107 17.4142 14.5858C17.7893 14.9609 18 15.4696 18 16Z" fill="#96ABBE"/>
<path d="M16 27.17L10.4 21.58L9 23L16 30L23 23L21.59 21.59L16 27.17Z" fill="#96ABBE"/>
<path d="M16 4.83L21.58 10.4L23 9L16 2L9 9L10.41 10.41L16 4.83Z" fill="#96ABBE"/>
</svg>
