<svg width="20" height="13" viewBox="0 0 20 13" fill="none" xmlns="http://www.w3.org/2000/svg">
<path fill-rule="evenodd" clip-rule="evenodd" d="M19.1125 1.6964C19.2457 1.25826 19.1125 0.935669 18.4745 0.935669H16.3681C15.832 0.935669 15.5849 1.21412 15.4509 1.52146C15.4509 1.52146 14.3796 4.08611 12.8622 5.752C12.3711 6.23508 12.148 6.38835 11.88 6.38835C11.7459 6.38835 11.5445 6.23508 11.5445 5.79614V1.6964C11.5445 1.16999 11.3969 0.935669 10.9507 0.935669H7.63818C7.30356 0.935669 7.10214 1.17962 7.10214 1.41152C7.10214 1.90985 7.86127 2.0254 7.93911 3.42809V6.47582C7.93911 7.14426 7.81633 7.26543 7.54831 7.26543C6.83412 7.26543 5.09681 4.68875 4.06566 1.74053C3.86584 1.16678 3.66363 0.935669 3.12518 0.935669H1.01713C0.41529 0.935669 0.294922 1.21412 0.294922 1.52146C0.294922 2.06873 1.00911 4.78745 3.6211 8.38325C5.36242 10.8388 7.81392 12.17 10.0472 12.17C11.3864 12.17 11.5518 11.8747 11.5518 11.3652V9.50909C11.5518 8.91768 11.6785 8.79972 12.103 8.79972C12.416 8.79972 12.9512 8.95379 14.2015 10.1374C15.6298 11.5409 15.865 12.17 16.669 12.17H18.7755C19.3773 12.17 19.679 11.8747 19.5057 11.2905C19.3147 10.7096 18.6326 9.86619 17.7282 8.86552C17.2371 8.29578 16.5005 7.6819 16.2766 7.37456C15.9645 6.98056 16.0535 6.80482 16.2766 6.45415C16.2766 6.45415 18.8445 2.90249 19.1117 1.6964H19.1125Z" fill="white"/>
</svg>
