<svg width="25" height="24" viewBox="0 0 25 24" fill="none" xmlns="http://www.w3.org/2000/svg">
<path fill-rule="evenodd" clip-rule="evenodd" d="M17.9746 14.382C17.6766 14.233 16.2156 13.515 15.9436 13.415C15.6716 13.316 15.4736 13.267 15.2746 13.565C15.0766 13.861 14.5076 14.531 14.3346 14.729C14.1606 14.928 13.9876 14.952 13.6906 14.804C13.3936 14.654 12.4356 14.341 11.3006 13.329C10.4176 12.541 9.82057 11.568 9.64757 11.27C9.47457 10.973 9.62857 10.812 9.77757 10.664C9.91157 10.531 10.0746 10.317 10.2236 10.144C10.3726 9.97004 10.4216 9.84604 10.5206 9.64704C10.6206 9.44904 10.5706 9.27604 10.4956 9.12704C10.4216 8.97804 9.82757 7.51504 9.57957 6.92004C9.33857 6.34104 9.09357 6.42004 8.91157 6.41004C8.73757 6.40204 8.53957 6.40004 8.34157 6.40004C8.14357 6.40004 7.82157 6.47404 7.54957 6.77204C7.27657 7.06904 6.50957 7.78804 6.50957 9.25104C6.50957 10.713 7.57357 12.126 7.72257 12.325C7.87157 12.523 9.81757 15.525 12.7986 16.812C13.5086 17.118 14.0616 17.301 14.4926 17.437C15.2046 17.664 15.8526 17.632 16.3646 17.555C16.9346 17.47 18.1226 16.836 18.3706 16.142C18.6176 15.448 18.6176 14.853 18.5436 14.729C18.4696 14.605 18.2716 14.531 17.9736 14.382H17.9746ZM12.5526 21.785H12.5486C10.778 21.7854 9.03994 21.3094 7.51657 20.407L7.15657 20.193L3.41457 21.175L4.41357 17.527L4.17857 17.153C3.18871 15.5774 2.66487 13.7538 2.66757 11.893C2.66957 6.44304 7.10357 2.00904 12.5566 2.00904C15.1966 2.00904 17.6786 3.03904 19.5446 4.90704C20.4649 5.82362 21.1944 6.91361 21.6908 8.11394C22.1873 9.31427 22.4407 10.6011 22.4366 11.9C22.4346 17.35 18.0006 21.785 12.5526 21.785ZM20.9646 3.48804C19.8628 2.37896 18.5518 1.49958 17.1077 0.900841C15.6635 0.302105 14.1149 -0.00407625 12.5516 4.09775e-05C5.99757 4.09775e-05 0.66157 5.33504 0.65957 11.892C0.65857 13.988 1.20557 16.034 2.24657 17.837L0.55957 24L6.86357 22.346C8.60744 23.2962 10.5617 23.794 12.5476 23.794H12.5526C19.1066 23.794 24.4426 18.459 24.4446 11.901C24.4494 10.3383 24.1443 8.79014 23.547 7.34607C22.9497 5.90201 22.0719 4.59071 20.9646 3.48804Z" fill="white"/>
</svg>
