<svg width="22" height="22" viewBox="0 0 22 22" fill="none" xmlns="http://www.w3.org/2000/svg">
<path d="M9.86665 17.076C9.66239 17.3647 9.469 17.5071 9.28411 17.5071C9.16086 17.5071 9.09072 17.4349 9.06841 17.2917C9.05961 17.262 9.05961 17.1496 9.05961 16.9336V13.189H8.1387V17.2107C8.1387 17.5702 8.16922 17.8126 8.21999 17.9666C8.31185 18.2243 8.51669 18.3449 8.81368 18.3449C9.15235 18.3449 9.5004 18.1404 9.86635 17.7201V18.2751H10.7887V13.1893H9.86665V17.076Z" fill="white"/>
<path d="M4.79124 12.4099H5.87532V18.2749H6.90011V12.4099H8.00414V11.4491H4.79124V12.4099Z" fill="white"/>
<path d="M11.067 7.96413C11.3673 7.96413 11.5111 7.72642 11.5111 7.2507V5.08842C11.5111 4.61329 11.3673 4.37646 11.067 4.37646C10.7665 4.37646 10.6224 4.61329 10.6224 5.08842V7.2507C10.6227 7.72612 10.7665 7.96413 11.067 7.96413Z" fill="white"/>
<path d="M13.4596 13.1269C13.121 13.1269 12.8052 13.3123 12.5079 13.6786V11.4491H11.5861V18.2749H12.5079V17.7813C12.8155 18.1625 13.1321 18.3447 13.4596 18.3447C13.8268 18.3447 14.0733 18.1516 14.1965 17.7734C14.2579 17.5577 14.2893 17.219 14.2893 16.7486V14.7233C14.2893 14.242 14.2579 13.9057 14.1965 13.7012C14.073 13.32 13.8268 13.1269 13.4596 13.1269ZM13.3678 16.8208C13.3678 17.28 13.2325 17.5066 12.9669 17.5066C12.8155 17.5066 12.6617 17.4344 12.5076 17.2803V14.1801C12.6617 14.0284 12.8152 13.9562 12.9669 13.9562C13.2328 13.9562 13.3678 14.1916 13.3678 14.6503V16.8208Z" fill="white"/>
<path d="M16.3945 13.1271C15.9244 13.1271 15.557 13.3005 15.2911 13.6489C15.095 13.9056 15.0061 14.303 15.0061 14.8462V16.6282C15.0061 17.1681 15.1065 17.5699 15.3022 17.8238C15.5684 18.1709 15.9352 18.3447 16.4177 18.3447C16.899 18.3447 17.2767 18.1624 17.532 17.7938C17.6446 17.6283 17.7181 17.4393 17.7471 17.2412C17.7553 17.1488 17.7668 16.9439 17.7668 16.6475V16.5125H16.8262C16.8262 16.8823 16.8148 17.0869 16.8063 17.137C16.7537 17.3833 16.6211 17.5065 16.3945 17.5065C16.0782 17.5065 15.9244 17.2717 15.9244 16.801V15.8995H17.7671V14.8459C17.7671 14.3024 17.6746 13.9054 17.4818 13.6486C17.2239 13.3002 16.857 13.1271 16.3945 13.1271ZM16.8456 15.1326H15.9244V14.6622C15.9244 14.1921 16.0782 13.9567 16.3863 13.9567C16.6912 13.9567 16.8456 14.1921 16.8456 14.6622V15.1326Z" fill="white"/>
<path d="M19.7885 0.527222H2.76734C1.63749 0.527222 0.713058 1.45165 0.713058 2.58151V19.6027C0.713058 20.7326 1.63749 21.657 2.76734 21.657H19.7885C20.9184 21.657 21.8428 20.7326 21.8428 19.6027V2.58151C21.8428 1.45165 20.9184 0.527222 19.7885 0.527222ZM13.209 3.59984H14.1372V7.38325C14.1372 7.60217 14.1372 7.71575 14.1487 7.74568C14.1692 7.89007 14.242 7.96373 14.367 7.96373C14.5531 7.96373 14.7488 7.81934 14.9551 7.52763V3.59984H15.8866V8.73849H14.9551V8.17796C14.5845 8.6032 14.2308 8.8098 13.8913 8.8098C13.5914 8.8098 13.3845 8.68801 13.2914 8.42741C13.2401 8.27216 13.209 8.02594 13.209 7.66322V3.59984ZM9.69116 5.27496C9.69116 4.72588 9.78478 4.32412 9.98287 4.0644C10.2405 3.71342 10.6033 3.53763 11.0669 3.53763C11.5336 3.53763 11.8957 3.71342 12.1537 4.0644C12.3485 4.32412 12.4427 4.72588 12.4427 5.27496V7.0754C12.4427 7.62125 12.3488 8.02624 12.1537 8.2842C11.8957 8.63431 11.5339 8.81009 11.0669 8.81009C10.603 8.81009 10.2402 8.63431 9.98287 8.2842C9.78478 8.02624 9.69116 7.62125 9.69116 7.0754V5.27496ZM7.20078 1.84255L7.93416 4.55039L8.63819 1.84255H9.68235L8.44039 5.94583V8.73849H7.40738V5.94583C7.31406 5.45046 7.10746 4.72559 6.77642 3.76389C6.55867 3.12413 6.33182 2.48143 6.11436 1.84255H7.20078ZM18.6361 18.5809C18.45 19.3917 17.7862 19.9898 16.988 20.0787C15.0969 20.29 13.1831 20.2912 11.2779 20.29C9.37245 20.2912 7.45874 20.29 5.56792 20.0787C4.76939 19.9895 4.10674 19.3914 3.92038 18.5809C3.65479 17.4258 3.65479 16.165 3.65479 14.9765C3.65479 13.7867 3.65773 12.5269 3.92361 11.3715C4.10967 10.5609 4.77262 9.96313 5.57115 9.87392C7.46197 9.66203 9.37568 9.66145 11.2812 9.66203C13.1864 9.66145 15.1001 9.66203 16.9912 9.87392C17.7891 9.96313 18.4527 10.5609 18.639 11.3715C18.9046 12.5272 18.9032 13.7867 18.9032 14.9765C18.9034 16.165 18.902 17.4258 18.6361 18.5809Z" fill="white"/>
</svg>
