<svg width="152" height="152" viewBox="0 0 14 14" fill="none" xmlns="http://www.w3.org/2000/svg">
<path d="M5.5 13.5V9.99504C5.5 9.75004 5.75 9.50004 6 9.50004H8C8.25 9.50004 8.5 9.75004 8.5 10V13.5C8.5 13.6326 8.55268 13.7598 8.64645 13.8536C8.74022 13.9474 8.86739 14 9 14H13C13.1326 14 13.2598 13.9474 13.3536 13.8536C13.4473 13.7598 13.5 13.6326 13.5 13.5V6.50004C13.5001 6.43433 13.4873 6.36925 13.4622 6.30851C13.4372 6.24777 13.4004 6.19256 13.354 6.14604L12 4.79304V1.50004C12 1.36743 11.9473 1.24025 11.8536 1.14649C11.7598 1.05272 11.6326 1.00004 11.5 1.00004H10.5C10.3674 1.00004 10.2402 1.05272 10.1464 1.14649C10.0527 1.24025 10 1.36743 10 1.50004V2.79304L7.354 0.146039C7.30756 0.0994761 7.25238 0.0625332 7.19163 0.0373268C7.13089 0.0121203 7.06577 -0.000854492 7 -0.000854492C6.93423 -0.000854492 6.86911 0.0121203 6.80837 0.0373268C6.74762 0.0625332 6.69245 0.0994761 6.646 0.146039L0.646001 6.14604C0.599599 6.19256 0.562821 6.24777 0.537769 6.30851C0.512717 6.36925 0.499883 6.43433 0.500001 6.50004V13.5C0.500001 13.6326 0.552679 13.7598 0.646447 13.8536C0.740216 13.9474 0.867393 14 1 14H5C5.13261 14 5.25979 13.9474 5.35355 13.8536C5.44732 13.7598 5.5 13.6326 5.5 13.5Z" fill="url(#paint0_linear_73_336)"/>
<defs>
<linearGradient id="paint0_linear_73_336" x1="7" y1="-0.000854492" x2="7" y2="14" gradientUnits="userSpaceOnUse">
<stop stop-color="#F3AC62"/>
<stop offset="1" stop-color="#EE8B2C"/>
</linearGradient>
</defs>
</svg>
