<svg width="194" height="16" viewBox="0 0 194 16" fill="none" xmlns="http://www.w3.org/2000/svg">
<path d="M23.457 0.299999L18.585 15H15.687L12.054 4.122L8.358 15H5.439L0.567 0.299999H3.402L7.056 11.472L10.857 0.299999H13.377L17.094 11.535L20.853 0.299999H23.457ZM32.384 15.21C30.886 15.21 29.535 14.888 28.331 14.244C27.127 13.586 26.182 12.683 25.496 11.535C24.81 10.373 24.467 9.078 24.467 7.65C24.467 6.222 24.81 4.934 25.496 3.786C26.182 2.624 27.127 1.721 28.331 1.077C29.535 0.418999 30.886 0.0899992 32.384 0.0899992C33.882 0.0899992 35.233 0.418999 36.437 1.077C37.641 1.721 38.586 2.617 39.272 3.765C39.958 4.913 40.301 6.208 40.301 7.65C40.301 9.092 39.958 10.387 39.272 11.535C38.586 12.683 37.641 13.586 36.437 14.244C35.233 14.888 33.882 15.21 32.384 15.21ZM32.384 12.816C33.364 12.816 34.246 12.599 35.03 12.165C35.814 11.717 36.43 11.101 36.878 10.317C37.326 9.519 37.55 8.63 37.55 7.65C37.55 6.67 37.326 5.788 36.878 5.004C36.43 4.206 35.814 3.59 35.03 3.156C34.246 2.708 33.364 2.484 32.384 2.484C31.404 2.484 30.522 2.708 29.738 3.156C28.954 3.59 28.338 4.206 27.89 5.004C27.442 5.788 27.218 6.67 27.218 7.65C27.218 8.63 27.442 9.519 27.89 10.317C28.338 11.101 28.954 11.717 29.738 12.165C30.522 12.599 31.404 12.816 32.384 12.816ZM50.0617 15.21C48.5637 15.21 47.2127 14.888 46.0087 14.244C44.8047 13.586 43.8597 12.683 43.1737 11.535C42.4877 10.373 42.1447 9.078 42.1447 7.65C42.1447 6.222 42.4877 4.934 43.1737 3.786C43.8597 2.624 44.8047 1.721 46.0087 1.077C47.2127 0.418999 48.5637 0.0899992 50.0617 0.0899992C51.5597 0.0899992 52.9107 0.418999 54.1147 1.077C55.3187 1.721 56.2637 2.617 56.9497 3.765C57.6357 4.913 57.9787 6.208 57.9787 7.65C57.9787 9.092 57.6357 10.387 56.9497 11.535C56.2637 12.683 55.3187 13.586 54.1147 14.244C52.9107 14.888 51.5597 15.21 50.0617 15.21ZM50.0617 12.816C51.0417 12.816 51.9237 12.599 52.7077 12.165C53.4917 11.717 54.1077 11.101 54.5557 10.317C55.0037 9.519 55.2277 8.63 55.2277 7.65C55.2277 6.67 55.0037 5.788 54.5557 5.004C54.1077 4.206 53.4917 3.59 52.7077 3.156C51.9237 2.708 51.0417 2.484 50.0617 2.484C49.0817 2.484 48.1997 2.708 47.4157 3.156C46.6317 3.59 46.0157 4.206 45.5677 5.004C45.1197 5.788 44.8957 6.67 44.8957 7.65C44.8957 8.63 45.1197 9.519 45.5677 10.317C46.0157 11.101 46.6317 11.717 47.4157 12.165C48.1997 12.599 49.0817 12.816 50.0617 12.816ZM60.8724 0.299999H67.2984C68.8664 0.299999 70.2594 0.607999 71.4774 1.224C72.6954 1.826 73.6404 2.687 74.3124 3.807C74.9844 4.913 75.3204 6.194 75.3204 7.65C75.3204 9.106 74.9844 10.394 74.3124 11.514C73.6404 12.62 72.6954 13.481 71.4774 14.097C70.2594 14.699 68.8664 15 67.2984 15H60.8724V0.299999ZM67.1724 12.69C68.2504 12.69 69.1954 12.487 70.0074 12.081C70.8334 11.661 71.4634 11.073 71.8974 10.317C72.3454 9.547 72.5694 8.658 72.5694 7.65C72.5694 6.642 72.3454 5.76 71.8974 5.004C71.4634 4.234 70.8334 3.646 70.0074 3.24C69.1954 2.82 68.2504 2.61 67.1724 2.61H63.6024V12.69H67.1724Z" fill="#84C57A"/>
<path d="M91.284 0.299999V15H88.554V8.7H80.952V15H78.222V0.299999H80.952V6.369H88.554V0.299999H91.284ZM102.09 15.21C100.592 15.21 99.241 14.888 98.037 14.244C96.833 13.586 95.888 12.683 95.202 11.535C94.516 10.373 94.173 9.078 94.173 7.65C94.173 6.222 94.516 4.934 95.202 3.786C95.888 2.624 96.833 1.721 98.037 1.077C99.241 0.418999 100.592 0.0899992 102.09 0.0899992C103.588 0.0899992 104.939 0.418999 106.143 1.077C107.347 1.721 108.292 2.617 108.978 3.765C109.664 4.913 110.007 6.208 110.007 7.65C110.007 9.092 109.664 10.387 108.978 11.535C108.292 12.683 107.347 13.586 106.143 14.244C104.939 14.888 103.588 15.21 102.09 15.21ZM102.09 12.816C103.07 12.816 103.952 12.599 104.736 12.165C105.52 11.717 106.136 11.101 106.584 10.317C107.032 9.519 107.256 8.63 107.256 7.65C107.256 6.67 107.032 5.788 106.584 5.004C106.136 4.206 105.52 3.59 104.736 3.156C103.952 2.708 103.07 2.484 102.09 2.484C101.11 2.484 100.228 2.708 99.444 3.156C98.66 3.59 98.044 4.206 97.596 5.004C97.148 5.788 96.924 6.67 96.924 7.65C96.924 8.63 97.148 9.519 97.596 10.317C98.044 11.101 98.66 11.717 99.444 12.165C100.228 12.599 101.11 12.816 102.09 12.816ZM119.222 15.21C117.192 15.21 115.61 14.643 114.476 13.509C113.342 12.361 112.775 10.723 112.775 8.595V0.299999H115.505V8.49C115.505 11.374 116.751 12.816 119.243 12.816C121.721 12.816 122.96 11.374 122.96 8.49V0.299999H125.648V8.595C125.648 10.723 125.081 12.361 123.947 13.509C122.827 14.643 121.252 15.21 119.222 15.21ZM134.028 15.21C132.894 15.21 131.795 15.049 130.731 14.727C129.681 14.405 128.848 13.978 128.232 13.446L129.177 11.325C129.779 11.801 130.514 12.193 131.382 12.501C132.264 12.795 133.146 12.942 134.028 12.942C135.12 12.942 135.932 12.767 136.464 12.417C137.01 12.067 137.283 11.605 137.283 11.031C137.283 10.611 137.129 10.268 136.821 10.002C136.527 9.722 136.149 9.505 135.687 9.351C135.225 9.197 134.595 9.022 133.797 8.826C132.677 8.56 131.767 8.294 131.067 8.028C130.381 7.762 129.786 7.349 129.282 6.789C128.792 6.215 128.547 5.445 128.547 4.479C128.547 3.667 128.764 2.932 129.198 2.274C129.646 1.602 130.311 1.07 131.193 0.677999C132.089 0.285999 133.181 0.0899992 134.469 0.0899992C135.365 0.0899992 136.247 0.201999 137.115 0.426C137.983 0.649999 138.732 0.972 139.362 1.392L138.501 3.513C137.857 3.135 137.185 2.848 136.485 2.652C135.785 2.456 135.106 2.358 134.448 2.358C133.37 2.358 132.565 2.54 132.033 2.904C131.515 3.268 131.256 3.751 131.256 4.353C131.256 4.773 131.403 5.116 131.697 5.382C132.005 5.648 132.39 5.858 132.852 6.012C133.314 6.166 133.944 6.341 134.742 6.537C135.834 6.789 136.73 7.055 137.43 7.335C138.13 7.601 138.725 8.014 139.215 8.574C139.719 9.134 139.971 9.89 139.971 10.842C139.971 11.654 139.747 12.389 139.299 13.047C138.865 13.705 138.2 14.23 137.304 14.622C136.408 15.014 135.316 15.21 134.028 15.21ZM153.703 12.711V15H142.678V0.299999H153.409V2.589H145.408V6.411H152.506V8.658H145.408V12.711H153.703ZM168.288 11.661H165.684V15H163.038V11.661H154.974V9.771L162.219 0.299999H165.138L158.313 9.351H163.122V6.39H165.684V9.351H168.288V11.661ZM174.29 0.0899992C176.306 0.0899992 177.867 0.719999 178.973 1.98C180.093 3.24 180.653 5.046 180.653 7.398C180.653 9.05 180.352 10.464 179.75 11.64C179.148 12.802 178.301 13.691 177.209 14.307C176.131 14.909 174.878 15.21 173.45 15.21C172.694 15.21 171.98 15.133 171.308 14.979C170.65 14.811 170.076 14.573 169.586 14.265L170.594 12.207C171.322 12.683 172.253 12.921 173.387 12.921C174.801 12.921 175.907 12.487 176.705 11.619C177.503 10.751 177.902 9.498 177.902 7.86V7.839C177.468 8.343 176.915 8.728 176.243 8.994C175.571 9.246 174.815 9.372 173.975 9.372C173.009 9.372 172.141 9.19 171.371 8.826C170.601 8.448 169.999 7.916 169.565 7.23C169.131 6.544 168.914 5.753 168.914 4.857C168.914 3.905 169.152 3.072 169.628 2.358C170.104 1.63 170.748 1.07 171.56 0.677999C172.372 0.285999 173.282 0.0899992 174.29 0.0899992ZM174.5 7.23C175.382 7.23 176.096 6.992 176.642 6.516C177.202 6.04 177.482 5.438 177.482 4.71C177.482 3.996 177.209 3.408 176.663 2.946C176.131 2.47 175.389 2.232 174.437 2.232C173.583 2.232 172.89 2.463 172.358 2.925C171.826 3.373 171.56 3.975 171.56 4.731C171.56 5.501 171.826 6.11 172.358 6.558C172.89 7.006 173.604 7.23 174.5 7.23ZM187.099 5.991C189.171 5.991 190.704 6.397 191.698 7.209C192.692 8.007 193.189 9.099 193.189 10.485C193.189 11.367 192.972 12.165 192.538 12.879C192.104 13.593 191.453 14.16 190.585 14.58C189.717 15 188.646 15.21 187.372 15.21C186.322 15.21 185.307 15.063 184.327 14.769C183.347 14.461 182.521 14.041 181.849 13.509L183.004 11.388C183.55 11.836 184.201 12.193 184.957 12.459C185.727 12.711 186.518 12.837 187.33 12.837C188.296 12.837 189.052 12.641 189.598 12.249C190.158 11.843 190.438 11.29 190.438 10.59C190.438 9.834 190.137 9.267 189.535 8.889C188.947 8.497 187.932 8.301 186.49 8.301H182.941L183.697 0.299999H192.328V2.589H186.007L185.692 5.991H187.099Z" fill="#333333"/>
</svg>
